<?xml version="1.0" standalone="no"?>
<!DOCTYPE svg PUBLIC "-//W3C//DTD SVG 20010904//EN"
 "http://www.w3.org/TR/2001/REC-SVG-20010904/DTD/svg10.dtd">
<svg version="1.0" xmlns="http://www.w3.org/2000/svg"
 width="1080.000000pt" height="1080.000000pt" viewBox="0 0 1080.000000 1080.000000"
 preserveAspectRatio="xMidYMid meet">
<metadata>
Created by potrace 1.14, written by Peter Selinger 2001-2017
</metadata>
<g transform="translate(0.000000,1080.000000) scale(0.100000,-0.100000)"
fill="#000000" stroke="none">
<path d="M0 5400 l0 -5400 5400 0 5400 0 0 5400 0 5400 -5400 0 -5400 0 0
-5400z m8491 2838 c623 -1085 1199 -2085 1278 -2223 282 -491 402 -763 521
-1185 139 -493 192 -1104 135 -1545 -111 -845 -539 -1580 -1220 -2095 -417
-315 -882 -508 -1425 -593 -114 -17 -181 -21 -425 -21 -252 0 -309 3 -435 22
-475 74 -895 234 -1276 488 -78 51 -147 100 -153 108 -11 13 1 32 71 113 266
310 470 666 593 1039 l37 112 35 -11 c21 -7 82 -53 153 -117 64 -58 139 -117
166 -132 118 -64 294 -85 433 -53 113 27 186 71 297 177 112 108 163 137 240
138 88 0 127 -21 241 -130 153 -146 275 -200 453 -200 181 0 302 53 451 197
108 105 158 133 239 133 82 0 130 -28 246 -139 76 -74 121 -108 176 -135 80
-40 184 -66 265 -66 137 0 298 64 408 164 l60 55 -122 122 -122 123 -46 -43
c-59 -55 -100 -71 -175 -71 -84 0 -123 19 -210 104 -110 108 -170 151 -262
187 -78 31 -90 33 -213 34 -110 0 -140 -3 -195 -23 -102 -35 -162 -75 -269
-177 -54 -52 -115 -102 -134 -110 -46 -19 -147 -19 -192 -1 -19 8 -82 60 -140
115 -163 155 -290 208 -480 199 -177 -9 -288 -61 -436 -209 -96 -96 -140 -118
-227 -119 -85 0 -124 22 -241 134 -103 98 -171 143 -265 172 l-58 18 6 36 c20
117 38 315 39 446 l2 152 86 -83 c179 -173 393 -224 625 -151 98 31 159 73
278 185 100 96 138 115 221 114 79 0 134 -32 244 -136 73 -70 117 -104 172
-131 137 -67 285 -81 432 -41 103 27 164 65 276 169 116 109 169 139 246 139
84 1 118 -17 247 -134 171 -156 269 -199 451 -199 150 0 290 56 399 159 l63
60 -119 119 -119 120 -59 -48 c-68 -55 -134 -76 -204 -66 -66 9 -97 29 -209
135 -127 121 -211 166 -351 189 l-94 15 0 1056 0 1056 -775 698 -775 697 -773
-695 -772 -696 -5 -457 -5 -457 -57 80 c-191 271 -461 540 -739 735 -57 40
-106 75 -108 76 -5 4 2452 4274 2459 4274 3 0 517 -887 1141 -1972z m-6021
587 c421 -48 827 -196 1175 -428 110 -74 367 -276 363 -287 -6 -14 -203 -259
-209 -260 -3 0 -59 42 -123 94 -172 138 -310 227 -491 316 -598 296 -1269 315
-1888 56 -202 -85 -391 -201 -602 -370 -66 -53 -123 -95 -127 -93 -15 5 -209
257 -204 265 14 23 320 256 414 314 317 199 703 341 1047 383 66 8 134 16 150
18 82 10 375 5 495 -8z m-43 -690 c377 -49 732 -219 1018 -486 l66 -62 -118
-119 c-65 -65 -122 -118 -126 -118 -5 0 -43 32 -85 71 -150 138 -332 244 -535
310 -170 56 -273 72 -462 72 -186 0 -292 -16 -458 -69 -206 -67 -389 -173
-543 -315 -40 -38 -77 -69 -82 -69 -4 0 -60 53 -125 118 l-118 118 76 72 c275
262 652 437 1032 481 116 14 337 12 460 -4z m8 -704 c171 -46 369 -166 510
-310 l50 -51 -122 -122 -122 -122 -84 80 c-98 93 -182 144 -292 181 -67 22
-98 26 -190 27 -98 0 -120 -4 -203 -32 -116 -40 -186 -84 -285 -180 l-78 -76
-122 122 -122 122 65 66 c154 156 340 261 540 305 117 26 339 21 455 -10z
m5529 -1097 l596 -538 -1 -1031 0 -1030 -105 -97 c-114 -106 -141 -124 -203
-134 l-41 -6 -2 818 -3 819 -27 57 c-31 68 -99 137 -165 170 l-48 23 -615 0
-615 0 -46 -23 c-70 -34 -122 -84 -160 -154 l-34 -63 -3 -707 -3 -706 -57 34
c-31 19 -80 42 -108 50 l-51 15 -23 112 c-12 62 -42 181 -66 264 l-44 153 0
718 0 718 602 542 c330 299 607 541 614 538 7 -3 281 -247 608 -542z m-4349
-279 c888 -128 1675 -703 2070 -1510 184 -377 268 -718 282 -1145 15 -494 -97
-962 -334 -1393 -419 -761 -1157 -1275 -2023 -1409 -212 -32 -572 -32 -785 0
-301 46 -582 135 -848 269 -687 344 -1210 982 -1413 1722 -72 263 -97 459 -98
761 0 186 4 250 22 370 99 630 375 1164 825 1597 209 200 432 356 692 483 191
93 300 135 499 189 340 93 756 118 1111 66z m4255 -1665 l0 -660 -52 29 c-173
96 -385 102 -562 17 -58 -28 -100 -60 -179 -135 -114 -108 -148 -130 -205
-134 l-37 -2 -3 773 -2 772 520 0 520 0 0 -660z"/>
<path d="M6310 7089 c-569 -523 -1059 -973 -1089 -999 l-54 -49 114 -125 c63
-69 116 -126 119 -126 3 0 442 401 975 890 533 490 972 890 975 890 3 0 442
-400 975 -890 533 -489 972 -890 975 -890 8 0 225 241 225 250 0 7 -2161 1993
-2173 1997 -4 1 -473 -426 -1042 -948z"/>
<path d="M7391 1754 c-118 -25 -198 -71 -316 -184 -119 -113 -154 -133 -235
-133 -96 -1 -123 14 -268 157 l-133 130 -122 -122 -122 -123 145 -143 c122
-120 157 -149 220 -179 149 -73 305 -84 466 -33 97 31 162 74 274 181 47 45
99 89 115 98 52 26 117 31 179 13 49 -14 71 -31 169 -124 161 -152 270 -202
444 -202 107 0 171 14 263 57 64 31 96 57 223 181 81 80 147 148 147 151 0 3
-52 60 -114 126 l-114 120 -124 -121 c-145 -143 -186 -167 -278 -167 -85 0
-114 15 -223 119 -103 98 -152 133 -232 167 -113 47 -240 58 -364 31z"/>
<path d="M3000 5734 c-264 -30 -459 -73 -640 -142 -347 -131 -613 -305 -877
-573 -186 -189 -310 -363 -428 -604 -87 -176 -135 -303 -175 -462 -57 -223
-65 -303 -64 -598 0 -246 3 -283 27 -415 98 -548 353 -1021 751 -1397 86 -82
301 -253 317 -253 3 0 49 64 101 143 l95 143 -50 34 c-153 105 -348 293 -463
446 -180 239 -320 533 -384 807 -112 485 -63 959 144 1383 289 592 817 992
1479 1119 117 23 365 34 536 24 555 -30 1077 -292 1435 -719 769 -916 587
-2307 -396 -3037 -40 -30 -73 -58 -73 -62 0 -10 178 -281 185 -281 3 0 55 37
115 82 135 101 385 349 483 480 259 347 418 724 483 1153 26 164 30 457 10
620 -88 713 -459 1324 -1043 1713 -294 197 -614 321 -973 378 -95 15 -512 28
-595 18z"/>
<path d="M1981 4563 c-19 -17 -21 -29 -23 -178 l-3 -160 -40 -12 c-22 -6 -67
-19 -100 -28 -42 -12 -70 -28 -97 -54 -35 -35 -37 -40 -28 -72 6 -21 10 -375
10 -915 0 -793 2 -883 16 -895 13 -11 36 -8 142 19 164 42 239 52 392 52 294
0 603 -79 806 -205 88 -55 126 -58 187 -16 252 173 729 261 1081 201 72 -12
157 -30 190 -41 34 -10 71 -19 82 -19 50 0 48 -31 46 957 -1 603 -6 931 -12
943 -6 11 -29 25 -53 31 -23 6 -78 21 -122 33 l-80 21 -3 162 c-2 162 -3 163
-28 179 -21 14 -41 16 -119 10 -253 -17 -464 -90 -679 -233 -104 -69 -301
-251 -352 -324 l-28 -41 -34 44 c-20 24 -78 86 -131 138 -228 227 -494 362
-796 405 -137 20 -198 19 -224 -2z m-21 -1140 c0 -373 4 -683 8 -690 9 -14 61
-35 71 -29 11 7 221 -21 287 -38 134 -35 263 -95 394 -184 107 -72 211 -159
175 -146 -11 3 -72 22 -135 41 -187 55 -280 67 -500 67 -175 -1 -207 -4 -310
-27 -63 -15 -120 -27 -125 -27 -12 0 -20 1319 -9 1536 l6 131 62 21 c33 11 64
21 69 21 4 1 7 -304 7 -676z m2508 646 l62 -21 0 -833 0 -833 -52 14 c-136 36
-259 47 -458 41 -251 -7 -368 -31 -645 -131 -11 -4 7 18 40 49 192 182 440
314 665 355 30 5 104 14 164 20 67 6 113 15 118 22 4 7 8 311 8 676 0 755 -12
678 98 641z"/>
<path d="M2360 1430 l0 -170 170 0 170 0 0 170 0 170 -170 0 -170 0 0 -170z"/>
<path d="M3050 1430 l0 -170 170 0 170 0 0 170 0 170 -170 0 -170 0 0 -170z"/>
<path d="M3730 1430 l0 -170 175 0 175 0 0 170 0 170 -175 0 -175 0 0 -170z"/>
</g>
</svg>
